<svg width="32" height="32" viewBox="0 0 32 32" fill="none" xmlns="http://www.w3.org/2000/svg">
<path d="M13.5938 9.55469C11.6602 10.3711 7.27734 12.8633 5.30078 18.6641C5.08594 17.8047 5 16.9453 5 16C5 11.7891 7.36328 8.13672 10.8867 6.28906C12.0898 7.32031 12.9492 8.48047 13.5938 9.55469ZM21.3711 17.1172C19.0508 16.8594 17.332 16 16.6875 15.6562C16.6875 14.1953 16.3008 9.55469 12.2617 5.6875C13.4219 5.25781 14.668 5 16 5C16.2148 5 16.4727 5.04297 16.6875 5.04297C20.7695 8.73828 21.5 12.9492 21.5 15.4844C21.5 16.1719 21.4141 16.6875 21.3711 17.1172ZM15.3125 15.6133C14.0664 16.3438 10.2422 19.0078 8.86719 24.4219C7.75 23.4336 6.80469 22.2305 6.11719 20.8984C7.57812 14.1094 12.4336 11.5312 14.1953 10.8008C15.1406 12.9492 15.2695 14.8398 15.3125 15.6133ZM19.0078 5.47266C23.6055 6.76172 27 11.0156 27 16C27 16.1719 26.957 16.3438 26.957 16.4727C25.4531 16.9883 24.0352 17.1602 22.7891 17.1602H22.7461C22.7891 16.7305 22.875 16.1719 22.875 15.5273C22.875 12.9922 22.2305 9.08203 19.0078 5.47266ZM15.957 16.8164C16.8594 17.332 19.3516 18.5352 22.7891 18.5352C24.0352 18.5352 25.3672 18.4062 26.7852 17.9766C26.5273 19.4805 25.9688 20.8984 25.1094 22.1016C23.4336 22.6602 21.8867 22.875 20.4688 22.875C16.3438 22.875 13.4648 21.0273 12.3477 20.168C13.7227 18.2773 15.3125 17.2031 15.957 16.8164ZM11.5742 21.3281C12.9492 22.3164 16.0859 24.25 20.5117 24.25C21.457 24.25 22.5312 24.1641 23.6055 23.9492C21.6289 25.8398 18.9648 27 16 27C13.8086 27 11.7891 26.3984 10.0703 25.3242C10.3711 23.7344 10.9297 22.4453 11.5742 21.3281Z" fill="#23292C"/>
</svg>
