<svg width="32" height="32" viewBox="0 0 32 32" fill="none" xmlns="http://www.w3.org/2000/svg">
<path d="M6.375 21.5V20.125H25.625V21.543C25.625 22.7461 25.0664 23.8203 24.25 24.5938V26.3125C24.25 26.6992 23.9062 27 23.5625 27H22.1875C21.8008 27 21.5 26.6992 21.5 26.3125V25.668H10.5V26.3125C10.5 26.6992 10.1562 27 9.8125 27H8.4375C8.05078 27 7.75 26.6992 7.75 26.3125V24.5938C6.89062 23.8203 6.375 22.7461 6.375 21.5ZM26.3125 16C26.6562 16 27 16.3438 27 16.6875V18.0625C27 18.4492 26.6562 18.75 26.3125 18.75H5.6875C5.30078 18.75 5 18.4492 5 18.0625V16.6875C5 16.3438 5.30078 16 5.6875 16L6.375 16.043V8.35156C6.375 6.50391 7.83594 5 9.68359 5C10.543 5 11.4023 5.38672 12.0039 5.98828L12.6055 6.58984C13.7656 6.20312 14.8828 6.46094 15.6992 7.0625C15.957 6.80469 16.3867 6.80469 16.6875 7.0625L17.1602 7.57812C17.418 7.83594 17.418 8.26562 17.1602 8.52344L12.6055 13.0781C12.3477 13.3359 11.918 13.3359 11.6602 13.0781L11.1875 12.5625C10.8867 12.3047 10.8867 11.875 11.1875 11.6172C10.543 10.8008 10.2852 9.68359 10.6719 8.52344L10.0703 7.92188C9.76953 7.62109 9.08203 7.87891 9.125 8.35156V16H26.3125Z" fill="#23292C"/>
</svg>
