<svg width="32" height="32" viewBox="0 0 32 32" fill="none" xmlns="http://www.w3.org/2000/svg">
<path d="M25.25 19.4375C25.25 20.082 24.9492 20.5977 24.5625 21.0273V24.5078C24.9492 24.7656 25.25 25.1953 25.25 25.668C25.25 26.3984 24.6055 27 23.875 27H10.125C7.80469 27 6 25.1953 6 22.875V9.125C6 6.84766 7.80469 5 10.125 5H23.1875C24.3047 5 25.25 5.94531 25.25 7.0625V19.4375ZM12.1445 10.5C11.8008 10.5 11.5 10.8438 11.5 11.1875C11.5 11.5742 11.8008 11.875 12.1445 11.875H20.4375C20.7812 11.875 21.125 11.5742 21.125 11.1875C21.125 10.8438 20.7812 10.5 20.3945 10.5H12.1445ZM12.1445 13.25C11.8008 13.25 11.5 13.5938 11.5 13.9375C11.5 14.3242 11.8008 14.625 12.1445 14.625H20.4375C20.7812 14.625 21.125 14.3242 21.125 13.9375C21.125 13.5938 20.7812 13.25 20.3945 13.25H12.1445ZM22.5 24.25V21.5H10.125C9.35156 21.5 8.75 22.1445 8.75 22.875C8.75 23.6484 9.35156 24.25 10.125 24.25H22.5Z" fill="#23292C"/>
</svg>
