<svg width="32" height="32" viewBox="0 0 32 32" fill="none" xmlns="http://www.w3.org/2000/svg">
<path d="M5.64229 6.00658L16.1696 7.29564L26.654 6.00658C26.9548 5.96361 27.2556 6.13549 27.3845 6.3933L29.1462 9.95971C29.5329 10.7331 29.1462 11.6785 28.2868 11.8933L21.2829 13.9128C20.6813 14.0847 20.0368 13.8269 19.736 13.2683L16.1696 7.29564L12.5603 13.2683C12.2595 13.8269 11.6149 14.0847 11.0134 13.9128L4.00947 11.8933C3.1501 11.6785 2.76338 10.7331 3.1501 9.95971L4.91182 6.3933C5.04072 6.13549 5.34151 5.96361 5.64229 6.00658ZM16.2126 10.0456L18.5329 13.9988C19.1774 15.073 20.4665 15.5456 21.6696 15.2019L27.1696 13.655V20.8308C27.1696 21.7761 26.5251 22.5925 25.5798 22.8503L16.8142 25.0417C16.3845 25.1277 15.9118 25.1277 15.4821 25.0417L6.71651 22.8503C5.77119 22.5925 5.16963 21.7761 5.16963 20.8308V13.655L10.6267 15.2019C11.8298 15.5456 13.1188 15.073 13.7634 13.9988L16.0837 10.0456H16.2126Z" fill="#23292C"/>
</svg>
