<svg width="32" height="32" viewBox="0 0 32 32" fill="none" xmlns="http://www.w3.org/2000/svg">
<path d="M16 27C9.89844 27 5 22.1016 5 16C5 9.94141 9.89844 5 16 5C22.0586 5 27 9.94141 27 16C27 22.1016 22.0586 27 16 27ZM14.9688 16C14.9688 16.3438 15.1406 16.6875 15.3984 16.8594L19.5234 19.6094C19.9961 19.9531 20.6406 19.8242 20.9414 19.3516C21.2852 18.8789 21.1562 18.2344 20.6836 17.8906L17.0312 15.4844V10.1562C17.0312 9.59766 16.5586 9.125 15.957 9.125C15.3984 9.125 14.9258 9.59766 14.9258 10.1562L14.9688 16Z" fill="#23292C"/>
</svg>
