<svg width="32" height="32" viewBox="0 0 32 32" fill="none" xmlns="http://www.w3.org/2000/svg">
<path d="M28.793 8.46875C28.793 9.45703 28.0195 10.1875 27.0742 10.1875C27.0312 10.1875 27.0312 10.1875 27.0312 10.1875L24.8398 22.1328C24.7539 22.7773 24.1523 23.25 23.5078 23.25H9.28516C8.64062 23.25 8.03906 22.7773 7.95312 22.1328L5.76172 10.1875C5.76172 10.1875 5.76172 10.1875 5.71875 10.1875C4.77344 10.1875 4 9.45703 4 8.46875C4 7.52344 4.77344 6.75 5.71875 6.75C6.62109 6.75 7.4375 7.52344 7.4375 8.46875C7.4375 8.85547 7.26562 9.19922 7.05078 9.5L10.918 12.5938C11.6055 13.1094 12.5938 12.8945 12.9805 12.1211L15.4727 7.17969C15 6.87891 14.6562 6.36328 14.6562 5.71875C14.6562 4.77344 15.4297 4 16.418 4C17.3633 4 18.0938 4.77344 18.0938 5.71875C18.0938 6.36328 17.75 6.87891 17.2344 7.17969L19.7266 12.1211C20.1133 12.8945 21.1445 13.1094 21.832 12.5938L25.6562 9.5C25.4844 9.19922 25.3555 8.85547 25.3555 8.46875C25.3555 7.52344 26.0859 6.75 27.0742 6.75C28.0195 6.75 28.793 7.52344 28.793 8.46875Z" fill="#23292C"/>
</svg>
