<svg width="32" height="32" viewBox="0 0 32 32" fill="none" xmlns="http://www.w3.org/2000/svg">
<path d="M11.3906 6.75098L15.5156 5.16113C16.0312 4.94629 16.6758 4.94629 17.1914 5.16113L21.3164 6.75098C22.2617 7.09473 22.9062 7.99707 22.9062 8.98535V13.7979C22.9492 13.8408 22.9922 13.8408 23.0352 13.8408L27.1602 15.4307C28.1055 15.7744 28.75 16.6768 28.75 17.665V22.7783C28.75 23.7666 28.1484 24.626 27.2891 25.0127L23.1641 26.8174C22.5625 27.0752 21.832 27.0752 21.2305 26.8174L16.375 24.6689L11.4766 26.8174C10.875 27.0752 10.1445 27.0752 9.54297 26.8174L5.41797 25.0127C4.55859 24.626 4 23.7666 4 22.7783V17.665C4 16.6768 4.60156 15.7744 5.54688 15.4307L9.67188 13.8408C9.71484 13.8408 9.75781 13.8408 9.84375 13.7979V8.98535C9.84375 7.99707 10.4453 7.09473 11.3906 6.75098ZM16.4609 7.09473C16.418 7.05176 16.2891 7.05176 16.2461 7.09473L12.8516 8.38379L16.332 9.71582L19.8555 8.38379L16.4609 7.09473ZM20.8438 14.0557V10.1885L17.2773 11.5635V15.3877L20.8438 14.0557ZM10.6172 15.7744C10.5742 15.7744 10.4453 15.7744 10.4023 15.7744L7.00781 17.0635L10.5312 18.3955L14.0117 17.0635L10.6172 15.7744ZM11.4336 24.583L15 23.0361V18.9111L11.4336 20.2432V24.583ZM18.6953 17.0635L22.2188 18.3955L25.6992 17.0635L22.3047 15.7744C22.2617 15.7744 22.1328 15.7744 22.0898 15.7744L18.6953 17.0635ZM26.6875 22.7783V18.9111L23.1211 20.2432V24.583L26.4727 23.1221C26.6016 23.0361 26.6875 22.9502 26.6875 22.7783Z" fill="#23292C"/>
</svg>
