<svg width="32" height="32" viewBox="0 0 32 32" fill="none" xmlns="http://www.w3.org/2000/svg">
<path d="M22.1875 13.207C24.8086 13.207 27 15.3984 27 18.0195C27 20.6836 24.8086 22.832 22.1875 22.832H21.5C21.5 25.1094 19.6523 26.957 17.375 26.957H9.125C6.84766 26.957 5 25.1094 5 22.832V14.582C5 13.8516 5.60156 13.207 6.375 13.207H22.1875ZM22.1875 20.082C23.3047 20.082 24.25 19.1797 24.25 18.0195C24.25 16.9023 23.3047 15.957 22.1875 15.957H21.5V20.082H22.1875ZM9.59766 9.29688C8.4375 8.60938 7.75 7.36328 7.75 6.03125C7.75 5.47266 8.17969 5 8.78125 5C9.33984 5 9.8125 5.47266 9.8125 6.03125C9.8125 6.63281 10.1133 7.23438 10.6719 7.53516C11.832 8.22266 12.5625 9.46875 12.5625 10.8008C12.5625 11.3594 12.0898 11.832 11.5312 11.832C10.9297 11.832 10.5 11.4023 10.5 10.8008C10.5 10.1992 10.1562 9.59766 9.59766 9.29688ZM14.4102 9.29688C13.25 8.60938 12.5625 7.36328 12.5625 6.03125C12.5625 5.47266 12.9922 5 13.5938 5C14.1523 5 14.625 5.47266 14.625 6.03125C14.625 6.63281 14.9258 7.23438 15.4844 7.53516C16.6445 8.22266 17.375 9.46875 17.375 10.8008C17.375 11.3594 16.9023 11.832 16.3438 11.832C15.7422 11.832 15.3125 11.4023 15.3125 10.8008C15.3125 10.1992 14.9688 9.59766 14.4102 9.29688Z" fill="#23292C"/>
</svg>
