<svg width="32" height="32" viewBox="0 0 32 32" fill="none" xmlns="http://www.w3.org/2000/svg">
<path d="M15.531 11.3762C15.6599 11.9348 15.6599 12.4934 15.5739 13.052C15.445 13.5676 15.1872 14.0833 14.8435 14.5559C14.2419 15.2434 13.4685 15.7161 12.5231 15.9309V25.2551C12.5231 25.7278 12.3513 26.1575 12.0505 26.5012C11.7067 26.802 11.2771 26.9739 10.8044 26.9739C10.3747 26.9739 9.94502 26.802 9.60127 26.5012C9.30049 26.1575 9.08565 25.7278 9.08565 25.2551V15.9309C8.1833 15.759 7.3669 15.2434 6.8083 14.5559C6.46455 14.1262 6.20674 13.6106 6.07783 13.052C5.94893 12.4934 5.9919 11.9348 6.1208 11.3762L7.40986 5.53248C7.45283 5.36061 7.53877 5.2317 7.66768 5.10279C7.83955 5.01686 7.96846 4.97389 8.14033 5.01686C8.31221 5.01686 8.48408 5.10279 8.61299 5.2317C8.69893 5.36061 8.78486 5.53248 8.78486 5.66139V11.8489H9.51533L10.2458 5.48951C10.2888 5.36061 10.3317 5.2317 10.4606 5.14576C10.5466 5.05983 10.6755 5.01686 10.8044 5.01686C10.9763 5.01686 11.1052 5.05983 11.1911 5.14576C11.32 5.2317 11.363 5.36061 11.406 5.48951L12.1364 11.8489H12.8669V5.66139C12.8669 5.53248 12.9528 5.36061 13.0388 5.2317C13.1677 5.10279 13.3396 5.01686 13.5114 5.01686C13.6833 4.97389 13.8122 5.01686 13.9841 5.10279C14.113 5.2317 14.1989 5.36061 14.2419 5.53248L15.531 11.3762ZM25.2849 25.2551C25.2849 25.7278 25.07 26.1575 24.7692 26.5012C24.4255 26.802 23.9958 26.9739 23.5661 26.9739C23.0935 26.9739 22.6638 26.802 22.32 26.5012C22.0192 26.1575 21.8474 25.7278 21.8474 25.2551V20.0989H21.1169C20.7302 20.0989 20.3864 20.0559 20.0427 19.927C19.6989 19.7551 19.3981 19.5833 19.1403 19.3255C18.8825 19.0676 18.7106 18.7239 18.5388 18.4231C18.4099 18.0794 18.3669 17.6926 18.3669 17.3489V12.4505C18.4099 10.8606 18.8825 9.31373 19.7419 8.02467C20.6442 6.69264 21.8903 5.70436 23.3942 5.10279C23.5661 5.01686 23.8239 4.97389 24.0388 5.01686C24.2536 5.01686 24.4685 5.10279 24.6403 5.2317C24.8552 5.36061 24.9841 5.53248 25.113 5.74733C25.1989 5.9192 25.2419 6.13404 25.2849 6.34889V25.2551Z" fill="#23292C"/>
</svg>
