<svg width="32" height="32" viewBox="0 0 32 32" fill="none" xmlns="http://www.w3.org/2000/svg">
<path d="M18.3286 14.5937H23.1411C23.6997 14.5937 24.2153 14.9804 24.3872 15.496C24.6021 16.0546 24.4732 16.6562 24.0435 17.0429L13.0435 26.6679C12.5278 27.0546 11.8403 27.0976 11.3247 26.7109C10.8091 26.3671 10.5942 25.6796 10.8521 25.078L14.1607 17.3437H9.34815C8.78956 17.3437 8.27393 16.9999 8.10206 16.4843C7.88722 15.9257 8.01612 15.3241 8.44581 14.9374L19.4458 5.31242C19.9614 4.9257 20.6489 4.88273 21.1646 5.26945C21.6802 5.6132 21.895 6.3007 21.6372 6.90226L18.3286 14.5937Z" fill="#23292C"/>
</svg>
