<svg width="32" height="32" viewBox="0 0 32 32" fill="none" xmlns="http://www.w3.org/2000/svg">
<path d="M11.5312 3H11.6172C12.9922 3 14.2383 3.73047 14.9258 4.93359L16 6.69531L17.0312 4.93359C17.7188 3.73047 18.9648 3 20.3398 3H20.4688C22.5312 3 24.25 4.71875 24.25 6.78125C24.25 7.42578 24.0781 7.98438 23.8203 8.5H25.625C26.3555 8.5 27 9.14453 27 9.875V12.625C27 13.3984 26.3555 14 25.625 14H6.375C5.60156 14 5 13.3984 5 12.625V9.875C5 9.14453 5.60156 8.5 6.375 8.5H8.13672C7.87891 7.98438 7.75 7.42578 7.75 6.78125C7.75 4.71875 9.42578 3 11.5312 3ZM13.1641 5.96484C12.8203 5.40625 12.2617 5.0625 11.6172 5.0625H11.5312C10.543 5.0625 9.8125 5.83594 9.8125 6.78125C9.8125 7.76953 10.543 8.5 11.5312 8.5H14.668L13.1641 5.96484ZM20.4688 5.0625H20.3398C19.6953 5.0625 19.1367 5.40625 18.793 5.96484L17.2891 8.5H20.4688C21.4141 8.5 22.1875 7.76953 22.1875 6.78125C22.1875 5.83594 21.4141 5.0625 20.4688 5.0625ZM6.375 15.375H14.625V25H8.4375C7.27734 25 6.375 24.0977 6.375 22.9375V15.375ZM17.375 25V15.375H25.625V22.9375C25.625 24.0977 24.6797 25 23.5625 25H17.375Z" fill="#23292C"/>
</svg>
