<svg width="32" height="32" viewBox="0 0 32 32" fill="none" xmlns="http://www.w3.org/2000/svg">
<path d="M28.707 14C28.707 14.7734 28.0625 15.375 27.332 15.375H25.957L26 22.25C26 22.3789 26 22.5078 26 22.5938V23.2812C26 24.2695 25.2266 25 24.2812 25H23.5938C23.5078 25 23.4648 25 23.4219 25C23.3789 25 23.293 25 23.25 25H20.8438C19.8555 25 19.125 24.2695 19.125 23.2812V19.5C19.125 18.7695 18.4805 18.125 17.75 18.125H15C14.2266 18.125 13.625 18.7695 13.625 19.5V23.2812C13.625 24.2695 12.8516 25 11.9062 25H9.5C9.41406 25 9.37109 25 9.28516 25C9.24219 25 9.19922 25 9.15625 25H8.46875C7.48047 25 6.75 24.2695 6.75 23.2812V18.4688C6.75 18.4688 6.75 18.4258 6.75 18.3828V15.375H5.375C4.60156 15.375 4 14.7734 4 14C4 13.6133 4.12891 13.2695 4.42969 12.9688L15.4297 3.38672C15.7305 3.08594 16.0742 3 16.375 3C16.6758 3 17.0195 3.12891 17.2773 3.34375L28.2344 12.9688C28.5781 13.2695 28.75 13.6133 28.707 14Z" fill="#23292C"/>
</svg>
