<svg width="32" height="32" viewBox="0 0 32 32" fill="none" xmlns="http://www.w3.org/2000/svg">
<path d="M5 12.1875C5 11.1133 5.94531 10.125 7.0625 10.125H9.125V26.625H7.0625C5.94531 26.625 5 25.6797 5 24.5625V12.1875ZM19.4375 6C20.5117 6 21.5 6.98828 21.5 8.0625V26.625H10.5V8.0625C10.5 6.98828 11.4453 6 12.5625 6H19.4375ZM19.4375 10.125V8.0625H12.5625V10.125H19.4375ZM24.9375 10.125C26.0117 10.125 27 11.1133 27 12.1875V24.5625C27 25.6797 26.0117 26.625 24.9375 26.625H22.875V10.125H24.9375Z" fill="#23292C"/>
</svg>
