<svg width="32" height="32" viewBox="0 0 32 32" fill="none" xmlns="http://www.w3.org/2000/svg">
<path d="M5 9.0625C5 7.94531 5.90234 7 7.0625 7C8.17969 7 9.125 7.94531 9.125 9.0625C9.125 10.2227 8.17969 11.125 7.0625 11.125C5.90234 11.125 5 10.2227 5 9.0625ZM24.9375 7.6875C25.668 7.6875 26.3125 8.33203 26.3125 9.0625C26.3125 9.83594 25.668 10.4375 24.9375 10.4375H12.5625C11.7891 10.4375 11.1875 9.83594 11.1875 9.0625C11.1875 8.33203 11.7891 7.6875 12.5625 7.6875H24.9375ZM24.9375 14.5625C25.668 14.5625 26.3125 15.207 26.3125 15.9375C26.3125 16.7109 25.668 17.3125 24.9375 17.3125H12.5625C11.7891 17.3125 11.1875 16.7109 11.1875 15.9375C11.1875 15.207 11.7891 14.5625 12.5625 14.5625H24.9375ZM24.9375 21.4375C25.668 21.4375 26.3125 22.082 26.3125 22.8125C26.3125 23.5859 25.668 24.1875 24.9375 24.1875H12.5625C11.7891 24.1875 11.1875 23.5859 11.1875 22.8125C11.1875 22.082 11.7891 21.4375 12.5625 21.4375H24.9375ZM5 22.8125C5 21.6953 5.90234 20.75 7.0625 20.75C8.17969 20.75 9.125 21.6953 9.125 22.8125C9.125 23.9727 8.17969 24.875 7.0625 24.875C5.90234 24.875 5 23.9727 5 22.8125ZM9.125 15.9375C9.125 17.0977 8.17969 18 7.0625 18C5.90234 18 5 17.0977 5 15.9375C5 14.8203 5.90234 13.875 7.0625 13.875C8.17969 13.875 9.125 14.8203 9.125 15.9375Z" fill="#23292C"/>
</svg>
