<svg width="32" height="32" viewBox="0 0 32 32" fill="none" xmlns="http://www.w3.org/2000/svg">
<path d="M20.5863 5.80566C21.6605 4.73145 23.4222 4.73145 24.4964 5.80566L26.1722 7.48145C27.2464 8.55566 27.2464 10.3174 26.1722 11.3916L24.1097 13.4541L18.5238 7.86816L20.5863 5.80566ZM23.1214 14.4424L13.1097 24.4541C12.68 24.8838 12.1214 25.2275 11.5199 25.3994L6.32065 26.9033C5.9769 27.0322 5.59018 26.9463 5.33237 26.6455C5.03158 26.3877 4.94565 26.001 5.03158 25.6572L6.57846 20.458C6.75033 19.8564 7.09408 19.2979 7.52377 18.8682L17.5355 8.85645L23.1214 14.4424Z" fill="#23292C"/>
</svg>
