<svg width="32" height="32" viewBox="0 0 32 32" fill="none" xmlns="http://www.w3.org/2000/svg">
<path d="M24.25 6C25.7969 6 27 7.24609 27 8.75V22.5C27 24.0469 25.7539 25.25 24.25 25.25H7.75C6.24609 25.25 5 24.0469 5 22.5V8.75C5 7.24609 6.24609 6 7.75 6H24.25ZM9.8125 8.75C8.69531 8.75 7.75 9.69531 7.75 10.8125C7.75 11.9727 8.60938 12.875 9.8125 12.875C10.9727 12.875 11.875 11.9727 11.875 10.8125C11.875 9.69531 10.9297 8.75 9.8125 8.75ZM24.207 22.1562C24.293 21.9414 24.293 21.6406 24.1641 21.4688L18.6641 13.2188C18.5352 13.0039 18.3203 12.875 18.1055 12.875C17.8477 12.875 17.6328 13.0039 17.5039 13.2188L13.5078 19.2344L12.0898 17.3008C11.9609 17.1289 11.7891 17 11.5742 17C11.3164 17 11.1445 17.1289 11.0156 17.3008L8.00781 21.4258C7.83594 21.6406 7.83594 21.8984 7.92188 22.1562C8.05078 22.3711 8.26562 22.5 8.56641 22.5H23.6055C23.8203 22.5 24.0781 22.3711 24.207 22.1562Z" fill="#23292C"/>
</svg>
