<svg width="32" height="32" viewBox="0 0 32 32" fill="none" xmlns="http://www.w3.org/2000/svg">
<path d="M13 23.5H4.75C3.20312 23.5 2 22.2969 2 20.75V9.75C2 8.24609 3.20312 7 4.75 7H13V23.5ZM4.75 19.375C4.75 20.1484 5.35156 20.75 6.125 20.75H8.875C9.60547 20.75 10.25 20.1484 10.25 19.375V11.125C10.25 10.3945 9.60547 9.75 8.875 9.75H6.125C5.35156 9.75 4.75 10.3945 4.75 11.125V19.375ZM14.375 7H26.75C28.2539 7 29.5 8.24609 29.5 9.75V20.75C29.5 22.2969 28.2539 23.5 26.75 23.5H14.375V7Z" fill="#23292C"/>
</svg>
