<svg width="32" height="32" viewBox="0 0 32 32" fill="none" xmlns="http://www.w3.org/2000/svg">
<path d="M22.875 10.5C25.1523 10.5 27 12.3477 27 14.625C27 16.9023 25.1523 18.75 22.875 18.75H9.125C6.84766 18.75 5 16.9023 5 14.625C5 12.8203 6.16016 11.2734 7.83594 10.7578C7.75 10.457 7.75 10.1562 7.75 9.8125C7.75 7.19141 9.89844 5 12.5625 5C14.4102 5 16 6.07422 16.8164 7.62109C17.418 6.89062 18.3633 6.375 19.4375 6.375C21.3281 6.375 22.875 7.92188 22.875 9.8125C22.875 10.0703 22.832 10.2852 22.7891 10.543C22.7891 10.543 22.832 10.5 22.875 10.5ZM20.8125 24.9375C20.8125 23.8203 22.832 20.8555 22.832 20.8555C22.832 20.8555 24.9375 23.8203 24.9375 24.9375C24.9375 26.0977 23.9922 27 22.875 27C21.7148 27 20.8125 26.0977 20.8125 24.9375ZM7.0625 24.9375C7.0625 23.8203 9.08203 20.8555 9.08203 20.8555C9.08203 20.8555 11.1875 23.8203 11.1875 24.9375C11.1875 26.0977 10.2422 27 9.125 27C7.96484 27 7.0625 26.0977 7.0625 24.9375ZM13.9375 24.9375C13.9375 23.8203 15.957 20.8555 15.957 20.8555C15.957 20.8555 18.0625 23.8203 18.0625 24.9375C18.0625 26.0977 17.1172 27 16 27C14.8398 27 13.9375 26.0977 13.9375 24.9375Z" fill="#23292C"/>
</svg>
