<svg width="32" height="32" viewBox="0 0 32 32" fill="none" xmlns="http://www.w3.org/2000/svg">
<path d="M5 16C5 9.94141 9.89844 5 16 5C22.0586 5 27 9.94141 27 16C27 22.1016 22.0586 27 16 27C9.89844 27 5 22.1016 5 16ZM12.0469 19.0078C11.7891 18.707 11.3594 18.707 11.0586 18.9219C10.7578 19.1797 10.7578 19.6094 10.9727 19.9102C11.9609 21.0273 13.5938 22.1875 15.957 22.1875C18.3633 22.1875 19.9961 21.0273 20.9844 19.9102C21.1992 19.6094 21.1992 19.1797 20.8984 18.9219C20.5977 18.707 20.168 18.707 19.9102 19.0078C19.1367 19.9102 17.8477 20.8125 15.957 20.8125C14.1094 20.8125 12.8203 19.9102 12.0469 19.0078ZM12.5625 12.5625C11.7891 12.5625 11.1875 13.207 11.1875 13.9375C11.1875 14.7109 11.7891 15.3125 12.5625 15.3125C13.3359 15.3125 13.9375 14.7109 13.9375 13.9375C13.9375 13.207 13.3359 12.5625 12.5625 12.5625ZM19.4375 15.3125C20.2109 15.3125 20.8125 14.7109 20.8125 13.9375C20.8125 13.207 20.2109 12.5625 19.4375 12.5625C18.6641 12.5625 18.0625 13.207 18.0625 13.9375C18.0625 14.7109 18.6641 15.3125 19.4375 15.3125Z" fill="#23292C"/>
</svg>
