<svg width="32" height="32" viewBox="0 0 32 32" fill="none" xmlns="http://www.w3.org/2000/svg">
<path d="M25.0559 21.543C24.7981 21.9727 24.3254 22.1875 23.8528 22.1875C23.6379 22.1875 23.3801 22.1445 23.1653 22.0156L22.091 21.3711L22.3488 22.2734C22.4778 22.832 22.134 23.3906 21.5754 23.5195C21.4895 23.5625 21.4035 23.5625 21.3176 23.5625C20.8879 23.5625 20.4582 23.2617 20.3293 22.7891L19.5559 19.9102L17.0207 18.4062V21.457L19.0832 23.5625C19.4699 23.9492 19.4699 24.5938 19.0832 25.0234C18.8684 25.1953 18.6106 25.2812 18.3528 25.2812C18.0949 25.2812 17.7942 25.1953 17.6223 24.9805L17.0207 24.3789V25.625C17.0207 26.3984 16.3762 27 15.6028 27C14.8723 27 14.2278 26.3984 14.2278 25.625V24.3789L13.6262 24.9805C13.2395 25.4102 12.5949 25.4102 12.1653 25.0234C11.7785 24.5938 11.7785 23.9492 12.1653 23.5625L14.2278 21.457V18.4062L11.6496 19.9102L10.8762 22.7891C10.7473 23.2617 10.3176 23.5625 9.88791 23.5625C9.80197 23.5625 9.71603 23.5625 9.6301 23.5195C9.0715 23.3906 8.72775 22.832 8.89963 22.2734L9.11447 21.3711L8.04025 22.0156C7.86838 22.1445 7.61056 22.1875 7.39572 22.1875C6.92306 22.1875 6.45041 21.9727 6.1926 21.543C5.80588 20.8555 6.02072 20.0391 6.66525 19.6523L7.78244 19.0078L6.92306 18.75C6.36447 18.6211 6.06369 18.0625 6.1926 17.5039C6.36447 16.9453 6.92306 16.6016 7.48166 16.7734L10.3176 17.5469L12.8957 16L10.3176 14.4961L7.48166 15.2695C7.35275 15.3125 7.26681 15.3125 7.18088 15.3125C6.75119 15.3125 6.3215 15.0117 6.1926 14.5391C6.06369 13.9805 6.36447 13.4219 6.92306 13.293L7.78244 13.0352L6.66525 12.3906C6.02072 12.0039 5.80588 11.1875 6.1926 10.5C6.57931 9.85547 7.39572 9.64062 8.08322 10.0273L9.15744 10.6289L8.89963 9.76953C8.77072 9.21094 9.11447 8.65234 9.6301 8.52344C10.1887 8.35156 10.7473 8.69531 10.9192 9.25391L11.6926 12.1328L14.2278 13.6367V10.5859L12.1653 8.48047C11.7785 8.09375 11.7785 7.44922 12.1653 7.01953C12.5949 6.63281 13.2395 6.63281 13.6262 7.0625L14.2707 7.66406L14.2278 6.375C14.2278 5.64453 14.8293 5 15.6028 5C16.3332 5 16.9778 5.64453 16.9778 6.375V7.66406L17.5793 7.0625C17.966 6.63281 18.6106 6.63281 19.0403 7.01953C19.427 7.44922 19.427 8.09375 19.0403 8.48047L16.9778 10.5859L17.0207 13.6367L19.5559 12.1328L20.3293 9.25391C20.5012 8.69531 21.0598 8.35156 21.5754 8.52344C22.134 8.65234 22.4778 9.21094 22.3488 9.76953L22.091 10.6719L23.1653 10.0273C23.8528 9.64062 24.6692 9.85547 25.0559 10.5C25.4426 11.1875 25.2278 12.0039 24.5832 12.3906L23.466 13.0352L24.3254 13.293C24.884 13.4219 25.1848 13.9805 25.0559 14.5391C24.927 15.0117 24.4973 15.3125 24.0676 15.3125C23.9817 15.3125 23.8528 15.3125 23.7668 15.2695L20.9309 14.4961L18.3528 16L20.9309 17.5469L23.7668 16.7734C24.3254 16.6016 24.884 16.9453 25.0559 17.5039C25.1848 18.0625 24.884 18.6211 24.3254 18.75L23.466 19.0078L24.5832 19.6523C25.2278 20.0391 25.4426 20.8555 25.0559 21.543Z" fill="#23292C"/>
</svg>
