<svg width="32" height="32" viewBox="0 0 32 32" fill="none" xmlns="http://www.w3.org/2000/svg">
<path d="M14.9681 17.9766C15.3978 17.5898 15.8275 17.418 16.3861 17.375C16.9017 17.375 17.3314 17.5898 17.7611 17.9336V23.5625C17.7611 25.4961 16.2142 27 14.2806 27C12.8626 27 11.5306 26.0977 11.015 24.7227C10.7572 23.9922 11.1439 23.2188 11.8743 22.9609C12.5618 22.7031 13.3782 23.0898 13.6361 23.8203C13.679 24.0352 13.9368 24.25 14.2806 24.25C14.6243 24.25 14.9681 23.9492 14.9681 23.5625V17.9766ZM28.7181 17.0742C28.804 17.5039 28.3743 18.0195 27.9017 17.5898C25.6673 15.2266 23.2611 15.3125 21.0697 19.1797C20.8548 19.5664 20.4251 19.5234 20.2103 19.1797C20.1243 18.9648 18.8353 16 16.3431 16C14.4095 16 13.3353 17.6328 12.4759 19.1797C12.2611 19.5234 11.8314 19.5664 11.6165 19.1797C9.42512 15.3125 7.01887 15.2266 4.7845 17.5898C4.35481 18.0195 3.92512 17.5039 4.01106 17.0742C5.25715 11.2305 9.94075 7.70703 14.9681 7.14844V6.41797C14.9681 5.64453 15.6126 5 16.3861 5C17.1165 5 17.7611 5.64453 17.7611 6.41797V7.14844C22.7884 7.70703 27.515 11.2305 28.7181 17.0742Z" fill="#23292C"/>
</svg>
