<svg width="32" height="32" viewBox="0 0 32 32" fill="none" xmlns="http://www.w3.org/2000/svg">
<path d="M7.75 7C8.17969 7 8.57031 7.35156 8.64844 7.78125L8.72656 8.25H25.1328C25.9531 8.25 26.5781 9.07031 26.3438 9.85156L24.2344 17.3516C24.0781 17.8984 23.6094 18.25 23.0234 18.25H10.6406L10.9922 20.125H23.0625C23.5703 20.125 24 20.5547 24 21.0625C24 21.6094 23.5703 22 23.0625 22H10.2109C9.78125 22 9.39062 21.6875 9.3125 21.2578L6.96875 8.875H4.9375C4.39062 8.875 4 8.48438 4 7.9375C4 7.42969 4.39062 7 4.9375 7H7.75ZM9 25.125C9 24.1094 9.82031 23.25 10.875 23.25C11.8906 23.25 12.75 24.1094 12.75 25.125C12.75 26.1797 11.8906 27 10.875 27C9.82031 27 9 26.1797 9 25.125ZM24 25.125C24 26.1797 23.1406 27 22.125 27C21.0703 27 20.25 26.1797 20.25 25.125C20.25 24.1094 21.0703 23.25 22.125 23.25C23.1406 23.25 24 24.1094 24 25.125Z" fill="#23292C"/>
</svg>
