<svg width="1474" height="382" viewBox="0 0 1474 382" fill="none" xmlns="http://www.w3.org/2000/svg">
<g clip-path="url(#clip0_3366_12346)">
<path d="M24.0759 392.687L3.62248 387.745L0 308.645L21.8851 307.638L23.7802 348.994L81.9985 247.002L102.459 252.741L100.542 324.497L158.551 220.521L179.027 224.95L185.858 305.834L227.504 195.386L248.632 197.988L257.427 273.249L293.989 169.826L314.667 169.897L378.403 354.278L357.703 361.459L304.199 206.686L262.351 325.065L241.146 322.678L232.102 245.299L189.268 358.902L168.102 355.95L160.212 262.524L97.962 374.105L77.4519 368.457L79.3938 295.778L24.0759 392.687Z" fill="#23292C"/>
<path d="M644.751 393.421C596.669 393.421 557.551 354.331 557.551 306.283C557.551 258.235 596.669 219.147 644.751 219.147C692.834 219.147 731.952 258.235 731.952 306.283C731.952 354.331 692.834 393.421 644.751 393.421ZM644.751 245.568C611.248 245.568 583.991 272.807 583.991 306.283C583.991 339.759 611.248 367.001 644.751 367.001C678.255 367.001 705.512 339.762 705.512 306.283C705.512 272.804 678.255 245.568 644.751 245.568Z" fill="#23292C"/>
<path d="M416.565 373.191L216.206 332.405L212.052 352.784L412.411 393.57L416.565 373.191Z" fill="#23292C"/>
<path d="M50.089 245.082L49.793 243.819C47.5967 234.422 38.1596 228.556 28.7536 230.756L27.4893 231.05L20.1084 199.466L21.3727 199.171C30.7787 196.976 36.6408 187.545 34.4471 178.146L34.1511 176.885L35.4154 176.59L189.675 140.599L189.971 141.862C191.035 146.415 193.81 150.281 197.782 152.748C201.755 155.215 206.456 155.988 211.007 154.924L212.272 154.631L219.653 186.217L218.388 186.513C208.982 188.708 203.12 198.135 205.314 207.537L205.61 208.798L204.346 209.094L50.0864 245.085L50.089 245.082ZM32.7362 227.7C41.4515 227.7 49.3958 233.408 51.9868 241.977L202.536 206.85C200.875 196.919 206.9 187.232 216.545 184.318L210.327 157.703C205.504 158.518 200.607 157.553 196.414 154.948C192.222 152.346 189.192 148.384 187.779 143.701L37.2301 178.829C38.8917 188.762 32.866 198.449 23.2212 201.363L29.4391 227.975C30.545 227.791 31.6484 227.703 32.7388 227.703L32.7362 227.7Z" fill="#23292C"/>
<path d="M68.085 197.163L56.9292 199.765L58.2533 205.428L62.7109 204.39C67.6255 203.246 71.2549 203.739 72.5011 209.073C73.7732 214.526 70.7357 216.581 65.8238 217.725L58.609 219.409L53.6191 198.05L67.5346 194.802L68.085 197.163ZM65.4084 215.39C68.8067 214.596 70.6137 213.312 69.7699 209.709C68.9495 206.196 66.7687 205.872 63.3703 206.666L58.7907 207.732L60.8287 216.457L65.4084 215.39Z" fill="#23292C"/>
<path d="M74.7031 193.125L80.9209 191.673C86.6195 190.342 90.2152 191.226 91.4822 196.651C92.7569 202.107 89.9245 204.488 84.2259 205.819L80.7703 206.629L82.4527 213.841L79.693 214.484L74.7031 193.125ZM83.7637 203.44C87.3101 202.613 89.6856 201.29 88.751 197.292C87.8268 193.323 85.1086 193.19 81.5622 194.018L78.0132 194.845L80.2174 204.268L83.7637 203.44Z" fill="#23292C"/>
<path d="M95.332 188.313L110.19 184.847L110.74 187.211L98.6473 190.033L100.317 197.183L110.899 194.713L111.436 197.015L100.854 199.484L102.531 206.668L114.629 203.845L115.18 206.209L100.322 209.675L95.332 188.316V188.313Z" fill="#23292C"/>
<path d="M119.268 182.727L132.578 179.622L137.568 200.981L134.811 201.624L130.374 182.629L122.581 184.448C124.948 194.724 126.503 203.562 119.618 205.168L119.065 202.805C123.796 201.7 121.617 192.786 119.268 182.727Z" fill="#23292C"/>
<path d="M148.372 175.583C154.707 174.106 159.551 177.993 161.008 184.232C162.472 190.505 159.855 196.132 153.518 197.608C147.181 199.087 142.31 195.209 140.843 188.936C139.384 182.696 142.035 177.061 148.372 175.583ZM152.96 195.216C157.874 194.072 159.424 189.903 158.251 184.875C157.082 179.876 153.842 176.831 148.933 177.977C144.018 179.124 142.466 183.288 143.634 188.287C144.808 193.315 148.045 196.363 152.96 195.216Z" fill="#23292C"/>
<path d="M164.289 172.223L167.046 171.577L169.227 180.909L170.896 180.522L175.595 170.796C176.032 169.93 176.592 169.32 177.623 169.079L181.291 168.223L181.844 170.586L178.173 171.442L173.529 181.119L186.167 189.641L182.589 190.477L171.332 182.943L169.785 183.303L172.036 192.939L169.279 193.585L164.289 172.226V172.223Z" fill="#23292C"/>
<path d="M496.616 162.48L380.236 227.018L344.93 165.298L461.309 100.758L496.616 162.48ZM381.18 223.485L493.06 161.441L460.366 104.289L348.488 166.335L381.18 223.485Z" fill="#23292C"/>
<path d="M399.655 190.418L389.3 184.817L388.629 185.19L388.126 196.81L385.358 198.347L385.993 185.289L374.339 179.078L377.106 177.541L387.384 183.073L388.109 182.671L388.636 171.149L391.403 169.612L390.725 182.663L402.423 188.881L399.655 190.418Z" fill="#23292C"/>
<path d="M410.487 158.892L411.644 175.958L413.989 180.055C414.628 181.176 414.359 182.12 413.095 182.82L407.157 186.114L405.937 183.983L411.337 180.99L409.228 177.3L394.989 167.493L397.539 166.077L408.276 173.655L408.949 174.834L409.647 174.448L408.974 173.269L407.914 160.328L410.492 158.898L410.487 158.892Z" fill="#23292C"/>
<path d="M437.926 166.057L439.081 165.419C440.182 164.808 441.134 165.107 441.76 166.201L444.07 170.243L441.651 171.585L439.572 167.951L424.723 176.193L426.798 179.823L424.354 181.179L422.044 177.138C421.418 176.044 421.653 175.088 422.752 174.475L423.638 173.982C422.981 168.877 420.859 163.616 416.236 155.533L428.137 148.932L437.929 166.058L437.926 166.057ZM435.506 167.399L426.933 152.404L419.869 156.322C423.681 163.238 425.473 168.038 426.053 172.644L435.506 167.399Z" fill="#23292C"/>
<path d="M461.176 155.823L451.531 138.958L450.949 137.017L450.278 137.39L451.875 160.979L446.982 163.692L435.964 144.425L438.412 143.07L448.055 159.932L448.606 161.894L449.308 161.504L447.684 137.928L452.577 135.215L463.595 154.482L461.176 155.823Z" fill="#23292C"/>
<path d="M663.238 220.588L662.487 219.538L571.739 92.6911L629.028 51.3401L629.78 52.3901L720.526 179.239L663.238 220.588ZM575.361 93.2613L663.858 216.956L716.904 178.668L628.409 54.9715L575.361 93.2613Z" fill="#23292C"/>
<path d="M626.126 96.2906L619.516 87.0446L614.772 90.4693L617.412 94.1643C620.324 98.2361 621.235 101.773 616.767 104.998C612.199 108.294 609.157 106.302 606.242 102.229L601.964 96.2492L619.859 83.3317L628.109 94.8642L626.126 96.2943L626.126 96.2906ZM608.241 100.937C610.253 103.75 612.127 104.911 615.146 102.733C618.09 100.605 617.566 98.4734 615.55 95.6569L612.839 91.8643L605.524 97.1432L608.239 100.936L608.241 100.937Z" fill="#23292C"/>
<path d="M638.536 108.716C642.296 113.969 640.518 119.938 635.286 123.717C630.028 127.515 623.831 127.298 620.072 122.045C616.314 116.789 618.071 110.793 623.326 106.998C628.56 103.221 634.778 103.46 638.536 108.716ZM622.078 120.598C624.992 124.672 629.437 124.476 633.652 121.433C637.846 118.408 639.444 114.24 636.53 110.166C633.618 106.094 629.178 106.288 624.983 109.314C620.768 112.357 619.165 116.526 622.078 120.598Z" fill="#23292C"/>
<path d="M647.808 122.153L649.443 124.442L641.625 130.088L642.612 131.47L653.389 131.998C654.354 132.063 655.13 132.337 655.742 133.193L657.919 136.234L655.939 137.665L653.759 134.622L643.046 134.124L639.916 149.076L637.794 146.107L640.528 132.815L639.61 131.533L631.537 137.362L629.902 135.073L647.802 122.151L647.808 122.153Z" fill="#23292C"/>
<path d="M664.257 145.041L667.762 149.941L653.91 168.517L652.203 166.128L657.531 159.045L652.405 151.88L644.024 154.694L642.337 152.332L664.261 145.041L664.257 145.041ZM659.059 156.986L665.601 148.268L665.151 147.636L654.837 151.08L659.061 156.987L659.059 156.986Z" fill="#23292C"/>
<path d="M677.119 162.898L685.014 173.935L667.108 186.86L665.473 184.574L681.396 173.078L676.772 166.617C668.149 172.806 660.546 177.686 656.464 171.98L658.445 170.549C661.25 174.472 668.687 168.987 677.121 162.9L677.119 162.898Z" fill="#23292C"/>
<path d="M287.694 172.814C283.818 172.814 279.88 172.168 276.022 170.804L106.321 110.701C97.499 107.578 90.4219 101.206 86.3953 92.764C82.3686 84.3195 81.8727 74.8139 84.9985 65.9984C88.1243 57.1829 94.5005 50.1108 102.951 46.087C111.402 42.0632 120.914 41.5703 129.733 44.6913L299.434 104.791C317.646 111.243 327.213 131.297 320.757 149.494C315.671 163.838 302.121 172.814 287.694 172.814ZM276.889 168.355C293.751 174.324 312.335 165.478 318.311 148.627C324.287 131.777 315.429 113.21 298.567 107.238L128.866 47.1377C120.698 44.245 111.89 44.7043 104.067 48.4271C96.2425 52.1551 90.3414 58.7006 87.4467 66.8623C84.552 75.0241 85.0115 83.8266 88.7396 91.6458C92.4677 99.4651 99.0204 105.362 107.188 108.252L276.889 168.355Z" fill="#23292C"/>
<path d="M133.088 72.144L132.067 75.0211C138.254 77.5039 140.736 81.2242 138.999 86.1222C137.252 91.0462 132.924 92.3538 126.607 90.4132L125.629 93.1684L123.222 92.3175L124.201 89.5623C118.014 87.0744 115.504 83.3463 117.251 78.4197C118.988 73.519 123.287 72.2037 129.661 74.1676L130.681 71.2905L133.088 72.1414V72.144ZM125.003 87.3104L128.861 76.4273C124.183 75.003 121.262 75.6827 119.951 79.377C118.64 83.0765 120.465 85.4737 125 87.313L125.003 87.3104ZM136.302 85.1675C137.613 81.4732 135.808 79.1176 131.27 77.2782L127.412 88.1614C132.093 89.5856 134.993 88.8644 136.304 85.1675H136.302Z" fill="#23292C"/>
<path d="M161.767 82.5012L149.519 94.4039L147.958 98.8012C147.53 100.008 146.627 100.412 145.248 99.922L138.763 97.6261L139.573 95.3404L145.469 97.4289L146.873 93.4725L144.83 76.5083L147.616 77.4967L149.02 90.3983L148.571 91.6643L149.332 91.9341L149.781 90.6733L158.945 81.5127L161.762 82.5064L161.767 82.5012Z" fill="#23292C"/>
<path d="M182.557 89.8687L181.747 92.1543L174.646 89.6404L168.125 108.024L165.453 107.077L171.975 88.6935L164.846 86.1692L165.656 83.8784L182.559 89.8687H182.557Z" fill="#23292C"/>
<path d="M200.1 98.6558L189.302 94.8292L187.358 100.311L191.67 101.842C196.426 103.523 199.217 105.899 197.387 111.064C195.515 116.339 191.849 116.424 187.093 114.743L180.109 112.271L187.441 91.5967L200.91 96.365L200.1 98.6558ZM188.002 112.559C191.291 113.724 193.508 113.612 194.747 110.125C195.954 106.722 194.284 105.277 190.998 104.112L186.569 102.542L183.575 110.989L188.004 112.559H188.002Z" fill="#23292C"/>
<path d="M217.325 101.815C223.46 103.984 225.436 109.871 223.294 115.913C221.142 121.984 215.9 125.307 209.765 123.138C203.633 120.964 201.624 115.067 203.776 108.997C205.918 102.957 211.193 99.644 217.325 101.815ZM210.586 120.816C215.342 122.497 218.896 119.833 220.622 114.963C222.338 110.125 221.258 105.813 216.502 104.13C211.749 102.448 208.192 105.113 206.476 109.951C204.749 114.821 205.832 119.133 210.586 120.816Z" fill="#23292C"/>
<path d="M234.629 108.307L247.511 112.867L240.18 133.542L237.511 132.6L244.032 114.211L236.49 111.542C232.936 121.473 229.47 129.754 222.809 127.39L223.619 125.105C228.198 126.726 231.176 118.041 234.629 108.307Z" fill="#23292C"/>
<path d="M253.51 114.998L256.178 115.939L252.977 124.967L254.592 125.541L263.801 119.89C264.634 119.395 265.436 119.182 266.436 119.535L269.988 120.791L269.178 123.081L265.623 121.821L256.487 127.471L262.526 141.457L259.063 140.23L253.655 127.821L252.154 127.289L248.849 136.613L246.181 135.672L253.512 114.998H253.51Z" fill="#23292C"/>
<path d="M280.14 124.425L285.862 126.451L285.135 149.465L282.347 148.477L282.661 139.674L274.296 136.709L268.993 143.742L266.235 142.769L280.138 124.422L280.14 124.425ZM282.739 137.127L283.113 126.298L282.378 126.039L275.844 134.683L282.739 137.124V137.127Z" fill="#23292C"/>
<path d="M455.138 11.0637L472.56 6.34502L575.371 383.628L560.126 392.202L422.185 247.35L451.37 349.303L436.428 358.26L350.536 275.449L363.062 262.472L424.773 321.97L394.733 217.026L409.946 208.343L548.564 353.909L455.138 11.0637Z" fill="#23292C"/>
<path d="M756.076 392.687L735.622 387.745L732 308.645L753.885 307.638L755.78 348.994L813.999 247.002L834.459 252.741L832.542 324.497L890.551 220.521L911.027 224.95L917.858 305.834L959.504 195.386L980.632 197.988L989.427 273.249L1025.99 169.826L1046.67 169.897L1110.4 354.278L1089.7 361.459L1036.2 206.686L994.351 325.065L973.146 322.678L964.102 245.299L921.268 358.902L900.102 355.95L892.212 262.524L829.962 374.105L809.452 368.457L811.394 295.778L756.076 392.687Z" fill="#23292C"/>
<path d="M1376.75 393.421C1328.67 393.421 1289.55 354.331 1289.55 306.283C1289.55 258.235 1328.67 219.147 1376.75 219.147C1424.83 219.147 1463.95 258.235 1463.95 306.283C1463.95 354.331 1424.83 393.421 1376.75 393.421ZM1376.75 245.568C1343.25 245.568 1315.99 272.807 1315.99 306.283C1315.99 339.759 1343.25 367.001 1376.75 367.001C1410.25 367.001 1437.51 339.762 1437.51 306.283C1437.51 272.804 1410.25 245.568 1376.75 245.568Z" fill="#23292C"/>
<path d="M1148.56 373.191L948.206 332.405L944.052 352.784L1144.41 393.57L1148.56 373.191Z" fill="#23292C"/>
<path d="M782.089 245.082L781.793 243.819C779.597 234.422 770.16 228.556 760.754 230.756L759.489 231.05L752.108 199.466L753.373 199.171C762.779 196.976 768.641 187.545 766.447 178.146L766.151 176.885L767.415 176.59L921.675 140.599L921.971 141.862C923.035 146.415 925.81 150.281 929.782 152.748C933.755 155.215 938.456 155.988 943.007 154.924L944.272 154.631L951.653 186.217L950.388 186.513C940.982 188.708 935.12 198.135 937.314 207.537L937.61 208.798L936.346 209.094L782.086 245.085L782.089 245.082ZM764.736 227.7C773.452 227.7 781.396 233.408 783.987 241.977L934.536 206.85C932.875 196.919 938.9 187.232 948.545 184.318L942.327 157.703C937.504 158.518 932.607 157.553 928.414 154.948C924.222 152.346 921.192 148.384 919.779 143.701L769.23 178.829C770.892 188.762 764.866 198.449 755.221 201.363L761.439 227.975C762.545 227.791 763.648 227.703 764.739 227.703L764.736 227.7Z" fill="#23292C"/>
<path d="M800.085 197.163L788.929 199.765L790.253 205.428L794.711 204.39C799.625 203.246 803.255 203.739 804.501 209.073C805.773 214.526 802.736 216.581 797.824 217.725L790.609 219.409L785.619 198.05L799.535 194.802L800.085 197.163ZM797.408 215.39C800.807 214.596 802.614 213.312 801.77 209.709C800.95 206.196 798.769 205.872 795.37 206.666L790.791 207.732L792.829 216.457L797.408 215.39Z" fill="#23292C"/>
<path d="M806.703 193.125L812.921 191.673C818.62 190.342 822.215 191.226 823.482 196.651C824.757 202.107 821.924 204.488 816.226 205.819L812.77 206.629L814.453 213.841L811.693 214.484L806.703 193.125ZM815.764 203.44C819.31 202.613 821.686 201.29 820.751 197.292C819.827 193.323 817.109 193.19 813.562 194.018L810.013 194.845L812.217 204.268L815.764 203.44Z" fill="#23292C"/>
<path d="M827.332 188.313L842.19 184.847L842.74 187.211L830.647 190.033L832.317 197.183L842.899 194.713L843.436 197.015L832.854 199.484L834.531 206.668L846.629 203.845L847.18 206.209L832.322 209.675L827.332 188.316V188.313Z" fill="#23292C"/>
<path d="M851.268 182.727L864.578 179.622L869.568 200.981L866.811 201.624L862.374 182.629L854.581 184.448C856.948 194.724 858.503 203.562 851.618 205.168L851.065 202.805C855.796 201.7 853.617 192.786 851.268 182.727Z" fill="#23292C"/>
<path d="M880.372 175.583C886.707 174.106 891.551 177.993 893.008 184.232C894.472 190.505 891.855 196.132 885.518 197.608C879.181 199.087 874.31 195.209 872.843 188.936C871.384 182.696 874.035 177.061 880.372 175.583ZM884.96 195.216C889.874 194.072 891.424 189.903 890.251 184.875C889.082 179.876 885.842 176.831 880.933 177.977C876.018 179.124 874.466 183.288 875.634 188.287C876.808 193.315 880.045 196.363 884.96 195.216Z" fill="#23292C"/>
<path d="M896.289 172.223L899.046 171.577L901.227 180.909L902.896 180.522L907.595 170.796C908.032 169.93 908.592 169.32 909.623 169.079L913.291 168.223L913.844 170.586L910.173 171.442L905.529 181.119L918.167 189.641L914.589 190.477L903.332 182.943L901.785 183.303L904.036 192.939L901.279 193.585L896.289 172.226V172.223Z" fill="#23292C"/>
<path d="M1228.62 162.48L1112.24 227.018L1076.93 165.298L1193.31 100.758L1228.62 162.48ZM1113.18 223.485L1225.06 161.441L1192.37 104.289L1080.49 166.335L1113.18 223.485Z" fill="#23292C"/>
<path d="M1131.65 190.418L1121.3 184.817L1120.63 185.19L1120.12 196.81L1117.36 198.347L1117.99 185.289L1106.34 179.078L1109.11 177.541L1119.38 183.073L1120.11 182.671L1120.63 171.149L1123.4 169.612L1122.72 182.663L1134.42 188.881L1131.65 190.418Z" fill="#23292C"/>
<path d="M1142.49 158.892L1143.64 175.958L1145.99 180.055C1146.63 181.176 1146.36 182.12 1145.09 182.82L1139.16 186.114L1137.94 183.983L1143.34 180.99L1141.23 177.3L1126.99 167.493L1129.54 166.077L1140.28 173.655L1140.95 174.834L1141.65 174.448L1140.97 173.269L1139.91 160.328L1142.49 158.898L1142.49 158.892Z" fill="#23292C"/>
<path d="M1169.92 166.057L1171.08 165.419C1172.18 164.808 1173.13 165.107 1173.76 166.201L1176.07 170.243L1173.65 171.585L1171.57 167.951L1156.72 176.193L1158.8 179.823L1156.35 181.179L1154.04 177.138C1153.42 176.044 1153.65 175.088 1154.75 174.475L1155.64 173.982C1154.98 168.877 1152.86 163.616 1148.24 155.533L1160.14 148.932L1169.93 166.058L1169.92 166.057ZM1167.51 167.399L1158.93 152.404L1151.87 156.322C1155.68 163.238 1157.47 168.038 1158.05 172.644L1167.51 167.399Z" fill="#23292C"/>
<path d="M1193.18 155.823L1183.53 138.958L1182.95 137.017L1182.28 137.39L1183.87 160.979L1178.98 163.692L1167.96 144.425L1170.41 143.07L1180.05 159.932L1180.61 161.894L1181.31 161.504L1179.68 137.928L1184.58 135.215L1195.59 154.482L1193.18 155.823Z" fill="#23292C"/>
<path d="M1395.24 220.588L1394.49 219.538L1303.74 92.6911L1361.03 51.3401L1361.78 52.3901L1452.53 179.239L1395.24 220.588ZM1307.36 93.2613L1395.86 216.956L1448.9 178.668L1360.41 54.9715L1307.36 93.2613Z" fill="#23292C"/>
<path d="M1358.13 96.2906L1351.52 87.0446L1346.77 90.4693L1349.41 94.1643C1352.32 98.2361 1353.23 101.773 1348.77 104.998C1344.2 108.294 1341.16 106.302 1338.24 102.229L1333.96 96.2492L1351.86 83.3317L1360.11 94.8642L1358.13 96.2943L1358.13 96.2906ZM1340.24 100.937C1342.25 103.75 1344.13 104.911 1347.15 102.733C1350.09 100.605 1349.57 98.4734 1347.55 95.6569L1344.84 91.8643L1337.52 97.1432L1340.24 100.936L1340.24 100.937Z" fill="#23292C"/>
<path d="M1370.54 108.716C1374.3 113.969 1372.52 119.938 1367.29 123.717C1362.03 127.515 1355.83 127.298 1352.07 122.045C1348.31 116.789 1350.07 110.793 1355.33 106.998C1360.56 103.221 1366.78 103.46 1370.54 108.716ZM1354.08 120.598C1356.99 124.672 1361.44 124.476 1365.65 121.433C1369.85 118.408 1371.44 114.24 1368.53 110.166C1365.62 106.094 1361.18 106.288 1356.98 109.314C1352.77 112.357 1351.17 116.526 1354.08 120.598Z" fill="#23292C"/>
<path d="M1379.81 122.153L1381.44 124.442L1373.62 130.088L1374.61 131.47L1385.39 131.998C1386.35 132.063 1387.13 132.337 1387.74 133.193L1389.92 136.234L1387.94 137.665L1385.76 134.622L1375.05 134.124L1371.92 149.076L1369.79 146.107L1372.53 132.815L1371.61 131.533L1363.54 137.362L1361.9 135.073L1379.8 122.151L1379.81 122.153Z" fill="#23292C"/>
<path d="M1396.26 145.041L1399.76 149.941L1385.91 168.517L1384.2 166.128L1389.53 159.045L1384.41 151.88L1376.02 154.694L1374.34 152.332L1396.26 145.041L1396.26 145.041ZM1391.06 156.986L1397.6 148.268L1397.15 147.636L1386.84 151.08L1391.06 156.987L1391.06 156.986Z" fill="#23292C"/>
<path d="M1409.12 162.898L1417.01 173.935L1399.11 186.86L1397.47 184.574L1413.4 173.078L1408.77 166.617C1400.15 172.806 1392.55 177.686 1388.46 171.98L1390.44 170.549C1393.25 174.472 1400.69 168.987 1409.12 162.9L1409.12 162.898Z" fill="#23292C"/>
<path d="M1019.69 172.814C1015.82 172.814 1011.88 172.168 1008.02 170.804L838.321 110.701C829.499 107.578 822.422 101.206 818.395 92.764C814.369 84.3195 813.873 74.8139 816.998 65.9984C820.124 57.1829 826.5 50.1108 834.951 46.087C843.402 42.0632 852.914 41.5703 861.733 44.6913L1031.43 104.791C1049.65 111.243 1059.21 131.297 1052.76 149.494C1047.67 163.838 1034.12 172.814 1019.69 172.814ZM1008.89 168.355C1025.75 174.324 1044.33 165.478 1050.31 148.627C1056.29 131.777 1047.43 113.21 1030.57 107.238L860.866 47.1377C852.698 44.245 843.89 44.7043 836.067 48.4271C828.243 52.1551 822.341 58.7006 819.447 66.8623C816.552 75.0241 817.011 83.8266 820.74 91.6458C824.468 99.4651 831.02 105.362 839.188 108.252L1008.89 168.355Z" fill="#23292C"/>
<path d="M865.088 72.144L864.067 75.0211C870.254 77.5039 872.736 81.2242 870.999 86.1222C869.252 91.0462 864.924 92.3538 858.607 90.4132L857.629 93.1684L855.222 92.3175L856.201 89.5623C850.014 87.0744 847.504 83.3463 849.251 78.4197C850.988 73.519 855.287 72.2037 861.661 74.1676L862.681 71.2905L865.088 72.1414V72.144ZM857.003 87.3104L860.861 76.4273C856.183 75.003 853.262 75.6827 851.951 79.377C850.64 83.0765 852.465 85.4737 857 87.313L857.003 87.3104ZM868.302 85.1675C869.613 81.4732 867.808 79.1176 863.27 77.2782L859.412 88.1614C864.093 89.5856 866.993 88.8644 868.304 85.1675H868.302Z" fill="#23292C"/>
<path d="M893.768 82.5012L881.52 94.4039L879.959 98.8012C879.531 100.008 878.627 100.412 877.249 99.922L870.764 97.6261L871.574 95.3404L877.47 97.4289L878.874 93.4725L876.831 76.5083L879.617 77.4967L881.021 90.3983L880.572 91.6643L881.333 91.9341L881.782 90.6733L890.946 81.5127L893.763 82.5064L893.768 82.5012Z" fill="#23292C"/>
<path d="M914.557 89.8687L913.747 92.1543L906.646 89.6404L900.125 108.024L897.453 107.077L903.975 88.6935L896.846 86.1692L897.656 83.8784L914.559 89.8687H914.557Z" fill="#23292C"/>
<path d="M932.1 98.6558L921.302 94.8292L919.358 100.311L923.67 101.842C928.426 103.523 931.217 105.899 929.387 111.064C927.515 116.339 923.849 116.424 919.093 114.743L912.109 112.271L919.441 91.5967L932.91 96.365L932.1 98.6558ZM920.002 112.559C923.291 113.724 925.508 113.612 926.747 110.125C927.954 106.722 926.284 105.277 922.998 104.112L918.569 102.542L915.575 110.989L920.004 112.559H920.002Z" fill="#23292C"/>
<path d="M949.325 101.815C955.46 103.984 957.436 109.871 955.294 115.913C953.142 121.984 947.9 125.307 941.765 123.138C935.633 120.964 933.624 115.067 935.776 108.997C937.918 102.957 943.193 99.644 949.325 101.815ZM942.586 120.816C947.342 122.497 950.896 119.833 952.622 114.963C954.338 110.125 953.258 105.813 948.502 104.13C943.749 102.448 940.192 105.113 938.476 109.951C936.749 114.821 937.832 119.133 942.586 120.816Z" fill="#23292C"/>
<path d="M966.629 108.307L979.511 112.867L972.18 133.542L969.511 132.6L976.032 114.211L968.49 111.542C964.936 121.473 961.47 129.754 954.809 127.39L955.619 125.105C960.198 126.726 963.176 118.041 966.629 108.307Z" fill="#23292C"/>
<path d="M985.51 114.998L988.178 115.939L984.977 124.967L986.592 125.541L995.801 119.89C996.634 119.395 997.436 119.182 998.436 119.535L1001.99 120.791L1001.18 123.081L997.623 121.821L988.487 127.471L994.526 141.457L991.063 140.23L985.655 127.821L984.154 127.289L980.849 136.613L978.181 135.672L985.512 114.998H985.51Z" fill="#23292C"/>
<path d="M1012.14 124.425L1017.86 126.451L1017.14 149.465L1014.35 148.477L1014.66 139.674L1006.3 136.709L1000.99 143.742L998.235 142.769L1012.14 124.422L1012.14 124.425ZM1014.74 137.127L1015.11 126.298L1014.38 126.039L1007.84 134.683L1014.74 137.124V137.127Z" fill="#23292C"/>
<path d="M1187.14 11.0637L1204.56 6.34502L1307.37 383.628L1292.13 392.202L1154.19 247.35L1183.37 349.303L1168.43 358.26L1082.54 275.449L1095.06 262.472L1156.77 321.97L1126.73 217.026L1141.95 208.343L1280.56 353.909L1187.14 11.0637Z" fill="#23292C"/>
</g>
<defs>
<clipPath id="clip0_3366_12346">
<rect width="1474" height="382" fill="white"/>
</clipPath>
</defs>
</svg>
