<svg width="143" height="74" viewBox="0 0 143 74" fill="none" xmlns="http://www.w3.org/2000/svg">
<g clip-path="url(#clip0_3352_3317)">
<path d="M2.82582 73.3L-0.0625 72.3212L17.3472 22.6274L20.2956 22.8652L25.896 55.9617L31.4683 39.0399L34.4108 39.1961L38.598 58.7766L35.6136 59.4063L32.605 45.3383L26.8695 62.7564L23.915 62.5376L18.2866 29.278L2.82582 73.3Z" fill="#00E6A0"/>
<path d="M49.19 55.3278C43.6407 55.3278 39.127 50.8437 39.127 45.3331C39.127 39.8225 43.6417 35.3384 49.19 35.3384C54.7383 35.3384 59.2531 39.8215 59.2531 45.3331C59.2531 50.8447 54.7383 55.3278 49.19 55.3278ZM49.19 38.3682C45.3232 38.3682 42.1775 41.4926 42.1775 45.3321C42.1775 49.1716 45.3232 52.2969 49.19 52.2969C53.0568 52.2969 56.2025 49.1726 56.2025 45.3321C56.2025 41.4916 53.0568 38.3682 49.19 38.3682Z" fill="#00E6A0"/>
<path d="M132.937 30.1452C127.388 30.1452 122.874 25.6621 122.874 20.1505C122.874 14.6389 127.389 10.1558 132.937 10.1558C138.485 10.1558 143 14.6398 143 20.1505C143 25.6611 138.485 30.1452 132.937 30.1452ZM132.937 13.1856C129.07 13.1856 125.925 16.3099 125.925 20.1505C125.925 23.991 129.07 27.1143 132.937 27.1143C136.804 27.1143 139.95 23.99 139.95 20.1505C139.95 16.3109 136.804 13.1856 132.937 13.1856Z" fill="#00E6A0"/>
<path d="M48.4479 9.16249L45.7822 10.6377L77.2148 66.6673L79.8805 65.1921L48.4479 9.16249Z" fill="#00E6A0"/>
<path d="M70.9629 26.2255L59.667 56.4463L62.5278 57.5011L73.8237 27.2803L70.9629 26.2255Z" fill="#00E6A0"/>
<path d="M77.0669 48.0498L74.2186 47.3675L73.7139 36.4437L76.7624 36.3045L77.0258 42.016L85.135 27.9301L87.9842 28.7229L87.7178 38.6321L95.7969 24.2726L98.6492 24.8844L99.6006 36.0548L105.401 20.8021L108.344 21.1612L109.569 31.5548L114.661 17.272L117.541 17.2819L126.419 42.7451L123.535 43.7368L116.083 22.3618L110.255 38.7106L107.301 38.3814L106.041 27.6954L100.075 43.3837L97.1279 42.9759L96.0283 30.0737L87.3583 45.4835L84.501 44.7037L84.7724 34.6662L77.0669 48.0498Z" fill="#00E6A0"/>
<path d="M119.886 1.73997L94.9121 18.2158L96.6006 20.7404L121.574 4.26459L119.886 1.73997Z" fill="#00E6A0"/>
</g>
<defs>
<clipPath id="clip0_3352_3317">
<rect width="143" height="73" fill="white" transform="translate(0 0.741699)"/>
</clipPath>
</defs>
</svg>
