<svg width="538" height="167" viewBox="0 0 538 167" fill="none" xmlns="http://www.w3.org/2000/svg">
<g clip-path="url(#clip0_1147_4929)">
<path d="M0 2.83154H42.9296L71.4621 115.081H77.673L105.944 2.83154H149.111V121.031H128.265V20.9172L131.978 8.5428H125.767L94.9972 121.031H53.8048L23.321 8.5428H17.3717L20.8461 20.9172V121.031H0V2.83154Z" fill="white"/>
<path d="M287.704 2.37982H308.859V18.7997L305.289 32.8398H311.239C316.236 14.54 331.68 0.0239258 358.809 0.0239258C393.29 0.0239258 414.922 26.4147 414.922 61.6103C414.922 96.8059 393.29 122.959 358.809 122.959C331.704 122.959 316.236 108.205 311.239 89.9048H305.289L308.859 104.183V166.721H287.704V2.37982ZM352.146 104.873C376.395 104.873 394.004 91.5468 394.004 61.5865C394.004 31.6262 376.418 18.062 352.146 18.062C327.873 18.062 308.859 30.9123 308.859 61.5865C308.859 92.2607 328.111 104.873 352.146 104.873Z" fill="white"/>
<path d="M447.619 2.37964V60.8724H517.058V2.37964H537.976V120.579H517.058V79.434H440.004C430.961 79.434 426.678 75.6264 426.678 67.5355V2.37964H447.595H447.619Z" fill="white"/>
<path d="M277.496 21.4883V2.83154H159.296V21.4883L192.993 61.9192L159.296 102.374V121.031H277.496V102.374H186.377L212.316 71.2476H277.496V52.6146H212.316L186.377 21.4883H277.496Z" fill="#00E6A0"/>
</g>
<defs>
<clipPath id="clip0_1147_4929">
<rect width="538" height="166.697" fill="white"/>
</clipPath>
</defs>
</svg>
