<svg width="143" height="74" viewBox="0 0 143 74" fill="none" xmlns="http://www.w3.org/2000/svg">
<g clip-path="url(#clip0_3201_1542)">
<path d="M2.77768 73.2002L2.91819 73.2478L2.96735 73.1079L18.2356 29.634L23.7671 62.3208L23.7868 62.4367L23.904 62.4454L26.8584 62.6642L26.9753 62.6729L27.0119 62.5615L32.5742 45.6697L35.4669 59.1958L35.4981 59.3421L35.6445 59.3112L38.629 58.6816L38.7762 58.6505L38.7447 58.5035L34.5574 38.9229L34.5334 38.8106L34.4187 38.8045L31.4763 38.6483L31.3618 38.6422L31.3259 38.7512L25.9429 55.0979L20.4435 22.5983L20.424 22.4832L20.3077 22.4738L17.3593 22.2361L17.2439 22.2268L17.2057 22.336L-0.204064 72.0298L-0.25417 72.1728L-0.110642 72.2214L2.77768 73.2002Z" fill="#23292C" stroke="#23292C" stroke-width="0.3"/>
<path d="M38.977 45.0915C38.977 50.6859 43.5588 55.2362 49.19 55.2362C54.8202 55.2362 59.4031 50.6869 59.4031 45.0915C59.4031 39.4961 54.8202 34.9468 49.19 34.9468C43.5598 34.9468 38.977 39.4971 38.977 45.0915ZM42.3275 45.0905C42.3275 41.3348 45.4051 38.2766 49.19 38.2766C52.975 38.2766 56.0525 41.3338 56.0525 45.0905C56.0525 48.8472 52.9749 51.9054 49.19 51.9054C45.4051 51.9054 42.3275 48.8462 42.3275 45.0905Z" fill="#23292C" stroke="#23292C" stroke-width="0.3"/>
<path d="M122.724 19.9088C122.724 25.5042 127.306 30.0535 132.937 30.0535C138.567 30.0535 143.15 25.5032 143.15 19.9088C143.15 14.3143 138.567 9.76406 132.937 9.76406C127.307 9.76406 122.724 14.3133 122.724 19.9088ZM126.075 19.9088C126.075 16.152 129.152 13.0939 132.937 13.0939C136.722 13.0939 139.8 16.153 139.8 19.9088C139.8 23.6645 136.722 26.7226 132.937 26.7226C129.152 26.7226 126.075 23.6654 126.075 19.9088Z" fill="#23292C" stroke="#23292C" stroke-width="0.3"/>
<path d="M48.5792 8.84816L48.5058 8.71734L48.3745 8.78997L45.7088 10.2652L45.5776 10.3378L45.651 10.4686L77.0835 66.4983L77.1569 66.6291L77.2882 66.5564L79.9539 65.0812L80.0851 65.0086L80.0117 64.8778L48.5792 8.84816Z" fill="#23292C" stroke="#23292C" stroke-width="0.3"/>
<path d="M71.0155 25.8433L70.8747 25.7914L70.8222 25.9319L59.5263 56.1527L59.4737 56.2932L59.6145 56.3451L62.4753 57.3999L62.616 57.4518L62.6685 57.3113L73.9645 27.0905L74.017 26.95L73.8762 26.8981L71.0155 25.8433Z" fill="#23292C" stroke="#23292C" stroke-width="0.3"/>
<path d="M77.0319 47.9539L77.1409 47.98L77.1969 47.8828L84.6064 35.0133L84.3511 44.4578L84.3479 44.5755L84.4615 44.6066L87.3188 45.3864L87.4317 45.4172L87.489 45.3152L95.9202 30.3299L96.9785 42.7468L96.9886 42.8662L97.1073 42.8826L100.055 43.2905L100.173 43.3068L100.216 43.1952L105.964 28.0789L107.152 38.1571L107.166 38.2754L107.285 38.2886L110.238 38.6179L110.356 38.631L110.396 38.5192L116.082 22.5711L123.394 43.5444L123.443 43.6854L123.584 43.6369L126.468 42.6451L126.61 42.5961L126.56 42.4539L117.683 16.9907L117.648 16.8905L117.542 16.8901L114.662 16.8802L114.556 16.8798L114.52 16.9798L109.642 30.6589L108.493 20.9019L108.479 20.7848L108.362 20.7705L105.419 20.4114L105.303 20.3972L105.261 20.507L99.6942 35.1448L98.7986 24.6298L98.7892 24.5192L98.6806 24.4959L95.8284 23.8841L95.7204 23.861L95.6662 23.9573L87.884 37.7889L88.1342 28.4851L88.1373 28.368L88.0244 28.3366L85.1752 27.5438L85.063 27.5126L85.005 27.6135L77.152 41.2543L76.9123 36.0557L76.9054 35.906L76.7556 35.9128L73.707 36.0521L73.5571 36.0589L73.564 36.2088L74.0688 47.1326L74.074 47.2452L74.1837 47.2715L77.0319 47.9539Z" fill="#23292C" stroke="#23292C" stroke-width="0.3"/>
<path d="M120.011 1.41543L119.927 1.29074L119.802 1.37334L94.8287 17.8492L94.7035 17.9318L94.7869 18.0565L96.4753 20.5811L96.5587 20.7058L96.6839 20.6232L121.657 4.14734L121.783 4.06473L121.699 3.94005L120.011 1.41543Z" fill="#23292C" stroke="#23292C" stroke-width="0.3"/>
</g>
<defs>
<clipPath id="clip0_3201_1542">
<rect width="143" height="73" fill="white" transform="translate(0 0.5)"/>
</clipPath>
</defs>
</svg>
