<svg width="19" height="19" viewBox="0 0 19 19" fill="none" xmlns="http://www.w3.org/2000/svg">
<path d="M18.5783 15.8594C19.1057 16.4219 19.1057 17.3008 18.5783 17.8633C18.0158 18.3906 17.1369 18.3906 16.5744 17.8633L12.3908 13.6445C10.9494 14.5937 9.19163 15.0859 7.29319 14.8398C4.05882 14.3828 1.45725 11.7461 1.03538 8.54685C0.437721 3.7656 4.48069 -0.277367 9.26194 0.32029C12.4612 0.742165 15.0979 3.34373 15.5549 6.5781C15.801 8.47654 15.3088 10.2344 14.3596 11.6406L18.5783 15.8594ZM3.77757 7.56248C3.77757 10.0586 5.78147 12.0625 8.27757 12.0625C10.7385 12.0625 12.7776 10.0586 12.7776 7.56248C12.7776 5.10154 10.7385 3.06248 8.27757 3.06248C5.78147 3.06248 3.77757 5.10154 3.77757 7.56248Z" fill="#23292C"/>
</svg>
