<svg width="32" height="32" viewBox="0 0 32 32" fill="none" xmlns="http://www.w3.org/2000/svg">
<path d="M22.9062 9.75C23.7695 9.75 24.5 10.4805 24.5 11.3438C24.5 11.875 24.2344 12.3398 23.8359 12.6387L16.6309 18.0508C16.2324 18.3496 15.7344 18.3496 15.3359 18.0508L8.13086 12.6387C7.73242 12.3398 7.5 11.875 7.5 11.3438C7.5 10.4805 8.19727 9.75 9.09375 9.75H22.9062ZM14.7051 18.9141C15.4688 19.4785 16.498 19.4785 17.2617 18.9141L24.5 13.4688V20.375C24.5 21.5703 23.5371 22.5 22.375 22.5H9.625C8.42969 22.5 7.5 21.5703 7.5 20.375V13.4688L14.7051 18.9141Z" fill="white"/>
</svg>
