<svg width="32" height="32" viewBox="0 0 32 32" fill="none" xmlns="http://www.w3.org/2000/svg">
<path d="M7 11C7.1806 17.8602 10.6722 22 16.8127 22H17.1739V18.0968C18.2575 18.2151 19.2809 18.629 20.0635 19.3387C20.9064 20.0484 21.5084 20.9946 21.8094 22H25C24.699 20.8172 24.097 19.6935 23.3144 18.7473C22.4716 17.8011 21.5084 17.0323 20.3645 16.5C21.388 15.9086 22.2308 15.0806 22.9532 14.1344C23.6154 13.1882 24.097 12.1237 24.3378 11H21.4482C20.786 13.1882 18.9197 15.1398 17.1739 15.3172V11H14.2843V18.629C12.4783 18.1559 10.1906 16.0269 10.0702 11H7Z" fill="white"/>
</svg>
